<svg width="510" height="77" viewBox="0 0 510 77" fill="none" xmlns="http://www.w3.org/2000/svg">
<path d="M15.596 26.472V30H1.82V26.136C1.82 25.1093 1.96933 24.232 2.268 23.504C2.58533 22.776 3.024 22.16 3.584 21.656C4.16267 21.152 4.85333 20.7413 5.656 20.424C6.45867 20.088 7.364 19.808 8.372 19.584C9.11867 19.416 9.72533 19.2293 10.192 19.024C10.6773 18.8 11.06 18.5573 11.34 18.296C11.62 18.016 11.8067 17.7173 11.9 17.4C12.012 17.064 12.068 16.6907 12.068 16.28C12.068 15.496 11.7787 14.8427 11.2 14.32C10.64 13.7973 9.856 13.536 8.848 13.536C7.784 13.536 6.93467 13.8627 6.3 14.516C5.66533 15.1507 5.348 16.0373 5.348 17.176V18.408H1.652V16.84C1.652 15.9253 1.81067 15.0573 2.128 14.236C2.464 13.396 2.93067 12.668 3.528 12.052C4.144 11.4173 4.89067 10.9227 5.768 10.568C6.64533 10.1947 7.63467 10.008 8.736 10.008C9.912 10.008 10.9387 10.1853 11.816 10.54C12.6933 10.876 13.4213 11.324 14 11.884C14.5973 12.444 15.036 13.0973 15.316 13.844C15.6147 14.572 15.764 15.328 15.764 16.112V16.448C15.764 18.0907 15.2973 19.4533 14.364 20.536C13.4493 21.6187 11.9467 22.4027 9.856 22.888C8.97867 23.0933 8.25067 23.308 7.672 23.532C7.112 23.7373 6.67333 23.9707 6.356 24.232C6.03867 24.4933 5.81467 24.7827 5.684 25.1C5.572 25.3987 5.516 25.744 5.516 26.136V26.472H15.596ZM23.6405 10.4H30.6405V22.776H33.4965V26.304H30.6405V30H26.9445V26.304H18.2085V21.208L23.6405 10.4ZM21.4005 22.272V22.776H26.9445V12.248H26.4405L21.4005 22.272ZM40.5051 20.2C40.5051 19.5653 40.7384 19.0147 41.2051 18.548C41.6717 18.0813 42.2224 17.848 42.8571 17.848C43.4917 17.848 44.0424 18.0813 44.5091 18.548C44.9757 19.0147 45.2091 19.5653 45.2091 20.2C45.2091 20.8347 44.9757 21.3853 44.5091 21.852C44.0424 22.3187 43.4917 22.552 42.8571 22.552C42.2224 22.552 41.6717 22.3187 41.2051 21.852C40.7384 21.3853 40.5051 20.8347 40.5051 20.2ZM35.6331 18.016C35.6331 15.4773 36.2677 13.508 37.5371 12.108C38.8251 10.708 40.5984 10.008 42.8571 10.008C45.1157 10.008 46.8797 10.708 48.1491 12.108C49.4371 13.508 50.0811 15.4773 50.0811 18.016V22.384C50.0811 24.9973 49.4371 26.9853 48.1491 28.348C46.8797 29.7107 45.1157 30.392 42.8571 30.392C40.5984 30.392 38.8251 29.7107 37.5371 28.348C36.2677 26.9853 35.6331 24.9973 35.6331 22.384V18.016ZM42.8571 27.032C43.5291 27.032 44.0891 26.9293 44.5371 26.724C44.9851 26.5 45.3491 26.192 45.6291 25.8C45.9091 25.408 46.1051 24.9413 46.2171 24.4C46.3291 23.8587 46.3851 23.2613 46.3851 22.608V17.792C46.3851 17.176 46.3197 16.5973 46.1891 16.056C46.0584 15.5147 45.8531 15.048 45.5731 14.656C45.2931 14.264 44.9291 13.956 44.4811 13.732C44.0331 13.4893 43.4917 13.368 42.8571 13.368C42.2224 13.368 41.6811 13.4893 41.2331 13.732C40.7851 13.956 40.4211 14.264 40.1411 14.656C39.8611 15.048 39.6557 15.5147 39.5251 16.056C39.3944 16.5973 39.3291 17.176 39.3291 17.792V22.608C39.3291 23.2613 39.3851 23.8587 39.4971 24.4C39.6091 24.9413 39.8051 25.408 40.0851 25.8C40.3651 26.192 40.7291 26.5 41.1771 26.724C41.6251 26.9293 42.1851 27.032 42.8571 27.032ZM58.2656 21.208H58.9376L62.6336 16.112H66.4976V16.28L62.0176 22.636V23.14L66.9456 29.832V30H62.9136L58.9376 24.568H58.2656V30H54.7376V10.4H58.2656V21.208ZM71.2941 18.604H75.5501V14.348H78.7421V18.604H82.9981V21.796H78.7421V26.052H75.5501V21.796H71.2941V18.604Z" fill="white"/>
<path d="M13.7223 50.1666V51.9658H8.20458V66H6.28538V51.9658H0.76768V50.1666H13.7223ZM19.028 53.7651C20.1635 53.7651 21.1631 54.013 22.0268 54.5088C22.9064 55.0046 23.5941 55.7243 24.0899 56.6679C24.5857 57.5955 24.8336 58.707 24.8336 60.0025C24.8336 61.298 24.5857 62.4175 24.0899 63.3611C23.5941 64.2887 22.9064 65.0004 22.0268 65.4962C21.1631 65.992 20.1635 66.2399 19.028 66.2399C17.9085 66.2399 16.9089 65.992 16.0293 65.4962C15.1496 65.0004 14.4619 64.2887 13.9661 63.3611C13.4703 62.4175 13.2224 61.298 13.2224 60.0025C13.2224 58.707 13.4703 57.5955 13.9661 56.6679C14.4619 55.7243 15.1496 55.0046 16.0293 54.5088C16.9089 54.013 17.9085 53.7651 19.028 53.7651ZM19.028 55.4204C18.2123 55.4204 17.5166 55.6043 16.9409 55.9722C16.3651 56.34 15.9173 56.8678 15.5974 57.5555C15.2936 58.2272 15.1416 59.0429 15.1416 60.0025C15.1416 60.9461 15.2936 61.7618 15.5974 62.4495C15.9173 63.1372 16.3651 63.665 16.9409 64.0328C17.5166 64.4007 18.2123 64.5846 19.028 64.5846C19.8437 64.5846 20.5394 64.4007 21.1151 64.0328C21.6909 63.665 22.1307 63.1372 22.4346 62.4495C22.7545 61.7618 22.9144 60.9461 22.9144 60.0025C22.9144 59.0429 22.7545 58.2272 22.4346 57.5555C22.1307 56.8678 21.6909 56.34 21.1151 55.9722C20.5394 55.6043 19.8437 55.4204 19.028 55.4204ZM31.0667 50.5984V62.6894C31.0667 63.2811 31.2346 63.7209 31.5705 64.0088C31.9063 64.2967 32.3381 64.4406 32.8659 64.4406C33.3297 64.4406 33.7296 64.3607 34.0654 64.2007C34.4013 64.0408 34.7052 63.8249 34.977 63.553L35.6488 65.1604C35.2809 65.4962 34.8411 65.7601 34.3293 65.952C33.8335 66.1439 33.2578 66.2399 32.602 66.2399C31.9943 66.2399 31.4265 66.1359 30.8987 65.928C30.371 65.7041 29.9471 65.3603 29.6273 64.8965C29.3234 64.4167 29.1635 63.7929 29.1475 63.0252V51.1262L31.0667 50.5984ZM35.4329 54.005V55.6603H26.7485V54.005H35.4329ZM45.2914 58.2512C45.2914 57.3556 45.0515 56.6679 44.5717 56.1881C44.0919 55.6923 43.4122 55.4444 42.5326 55.4444C41.7009 55.4444 40.9972 55.6283 40.4215 55.9962C39.8457 56.348 39.4219 56.9238 39.15 57.7234L37.5906 56.7638C37.9105 55.8682 38.5023 55.1485 39.3659 54.6047C40.2295 54.045 41.3011 53.7651 42.5806 53.7651C43.4442 53.7651 44.2279 53.917 44.9316 54.2209C45.6353 54.5088 46.1871 54.9566 46.5869 55.5643C47.0027 56.1561 47.2106 56.9238 47.2106 57.8674V63.673C47.2106 64.2487 47.5145 64.5366 48.1223 64.5366C48.4261 64.5366 48.722 64.4966 49.0099 64.4167L48.9139 65.928C48.5941 66.088 48.1782 66.1679 47.6664 66.1679C47.2026 66.1679 46.7868 66.08 46.419 65.904C46.0511 65.7281 45.7632 65.4642 45.5553 65.1124C45.3474 64.7445 45.2435 64.2887 45.2435 63.7449V63.505L45.7233 63.577C45.5313 64.2007 45.2035 64.7125 44.7397 65.1124C44.2759 65.4962 43.7561 65.7841 43.1803 65.976C42.6046 66.1519 42.0368 66.2399 41.477 66.2399C40.7733 66.2399 40.1176 66.12 39.5098 65.88C38.9021 65.6401 38.4143 65.2803 38.0465 64.8005C37.6946 64.3047 37.5187 63.697 37.5187 62.9773C37.5187 62.0816 37.8145 61.3459 38.4063 60.7702C39.014 60.1784 39.8537 59.7786 40.9253 59.5707L45.6753 58.6351V60.2184L41.8129 61.0101C41.0292 61.17 40.4455 61.3939 40.0616 61.6818C39.6778 61.9697 39.4859 62.3695 39.4859 62.8813C39.4859 63.3771 39.6778 63.7849 40.0616 64.1048C40.4614 64.4087 41.0212 64.5606 41.7409 64.5606C42.2047 64.5606 42.6445 64.5046 43.0604 64.3927C43.4922 64.2647 43.876 64.0808 44.2119 63.8409C44.5477 63.585 44.8116 63.2731 45.0036 62.9053C45.1955 62.5214 45.2914 62.0736 45.2914 61.5618V58.2512ZM53.6977 48.4873V62.9533C53.6977 63.561 53.8096 63.9848 54.0335 64.2247C54.2574 64.4486 54.6173 64.5606 55.1131 64.5606C55.433 64.5606 55.6968 64.5366 55.9048 64.4886C56.1127 64.4407 56.3926 64.3527 56.7444 64.2247L56.4325 65.904C56.1766 66.016 55.8968 66.096 55.5929 66.1439C55.289 66.2079 54.9771 66.2399 54.6573 66.2399C53.6817 66.2399 52.954 65.976 52.4742 65.4482C52.0104 64.9204 51.7785 64.1128 51.7785 63.0252V48.4873H53.6977ZM71.9859 49.9267C73.3773 49.9267 74.5768 50.2146 75.5844 50.7903C76.592 51.3501 77.4317 52.1818 78.1034 53.2853L76.496 54.5328C75.9043 53.5092 75.2326 52.7895 74.4809 52.3737C73.7452 51.9419 72.8496 51.7259 71.794 51.7259C70.9464 51.7259 70.2427 51.8459 69.6829 52.0858C69.1391 52.3257 68.7393 52.6456 68.4834 53.0454C68.2275 53.4292 68.0995 53.8691 68.0995 54.3648C68.0995 54.9246 68.2755 55.4204 68.6273 55.8522C68.9792 56.2681 69.6829 56.5959 70.7384 56.8358L74.169 57.6035C75.6884 57.9394 76.7439 58.4511 77.3357 59.1389C77.9434 59.8106 78.2473 60.6502 78.2473 61.6578C78.2473 62.5534 77.9914 63.3531 77.4796 64.0568C76.9838 64.7445 76.2801 65.2803 75.3685 65.6641C74.4569 66.048 73.3853 66.2399 72.1539 66.2399C71.0023 66.2399 69.9868 66.088 69.1071 65.7841C68.2435 65.4642 67.4998 65.0404 66.8761 64.5126C66.2523 63.9848 65.7405 63.3931 65.3407 62.7374L67.02 61.3699C67.3239 61.9777 67.7157 62.5135 68.1955 62.9773C68.6753 63.4411 69.2511 63.8009 69.9228 64.0568C70.6105 64.3127 71.3942 64.4406 72.2738 64.4406C73.0895 64.4406 73.7932 64.3447 74.3849 64.1528C74.9927 63.9449 75.4565 63.649 75.7763 63.2651C76.0962 62.8653 76.2561 62.3855 76.2561 61.8257C76.2561 61.314 76.0882 60.8581 75.7524 60.4583C75.4165 60.0425 74.7848 59.7306 73.8571 59.5227L70.1387 58.683C69.1631 58.4591 68.3714 58.1553 67.7637 57.7714C67.1719 57.3716 66.7401 56.9078 66.4682 56.38C66.2123 55.8362 66.0844 55.2525 66.0844 54.6287C66.0844 53.7811 66.3163 53.0054 66.7801 52.3017C67.2599 51.582 67.9396 51.0062 68.8192 50.5744C69.7149 50.1426 70.7704 49.9267 71.9859 49.9267ZM88.6796 58.2512C88.6796 57.3556 88.4397 56.6679 87.9599 56.1881C87.4801 55.6923 86.8004 55.4444 85.9208 55.4444C85.0891 55.4444 84.3854 55.6283 83.8096 55.9962C83.2339 56.348 82.81 56.9238 82.5382 57.7234L80.9788 56.7638C81.2987 55.8682 81.8904 55.1485 82.7541 54.6047C83.6177 54.045 84.6893 53.7651 85.9687 53.7651C86.8324 53.7651 87.616 53.917 88.3198 54.2209C89.0235 54.5088 89.5752 54.9566 89.9751 55.5643C90.3909 56.1561 90.5988 56.9238 90.5988 57.8674V63.673C90.5988 64.2487 90.9027 64.5366 91.5104 64.5366C91.8143 64.5366 92.1102 64.4966 92.3981 64.4167L92.3021 65.928C91.9822 66.088 91.5664 66.1679 91.0546 66.1679C90.5908 66.1679 90.175 66.08 89.8071 65.904C89.4393 65.7281 89.1514 65.4642 88.9435 65.1124C88.7356 64.7445 88.6316 64.2887 88.6316 63.7449V63.505L89.1114 63.577C88.9195 64.2007 88.5916 64.7125 88.1278 65.1124C87.664 65.4962 87.1442 65.7841 86.5685 65.976C85.9927 66.1519 85.425 66.2399 84.8652 66.2399C84.1615 66.2399 83.5058 66.12 82.898 65.88C82.2903 65.6401 81.8025 65.2803 81.4346 64.8005C81.0828 64.3047 80.9068 63.697 80.9068 62.9773C80.9068 62.0816 81.2027 61.3459 81.7945 60.7702C82.4022 60.1784 83.2419 59.7786 84.3134 59.5707L89.0634 58.6351V60.2184L85.2011 61.0101C84.4174 61.17 83.8336 61.3939 83.4498 61.6818C83.0659 61.9697 82.874 62.3695 82.874 62.8813C82.874 63.3771 83.0659 63.7849 83.4498 64.1048C83.8496 64.4087 84.4094 64.5606 85.1291 64.5606C85.5929 64.5606 86.0327 64.5046 86.4485 64.3927C86.8804 64.2647 87.2642 64.0808 87.6001 63.8409C87.9359 63.585 88.1998 63.2731 88.3917 62.9053C88.5836 62.5214 88.6796 62.0736 88.6796 61.5618V58.2512ZM97.0858 48.4873V62.9533C97.0858 63.561 97.1978 63.9848 97.4217 64.2247C97.6456 64.4486 98.0055 64.5606 98.5013 64.5606C98.8211 64.5606 99.085 64.5366 99.2929 64.4886C99.5008 64.4407 99.7807 64.3527 100.133 64.2247L99.8207 65.904C99.5648 66.016 99.2849 66.096 98.9811 66.1439C98.6772 66.2079 98.3653 66.2399 98.0454 66.2399C97.0698 66.2399 96.3422 65.976 95.8624 65.4482C95.3985 64.9204 95.1666 64.1128 95.1666 63.0252V48.4873H97.0858ZM107.609 66.2399C106.474 66.2399 105.458 65.992 104.563 65.4962C103.683 65.0004 102.995 64.2887 102.5 63.3611C102.004 62.4175 101.756 61.298 101.756 60.0025C101.756 58.707 102.004 57.5955 102.5 56.6679C102.995 55.7243 103.675 55.0046 104.539 54.5088C105.402 54.013 106.386 53.7651 107.489 53.7651C108.609 53.7651 109.561 54.005 110.344 54.4848C111.144 54.9646 111.752 55.6203 112.167 56.452C112.583 57.2676 112.791 58.1873 112.791 59.2108C112.791 59.4827 112.783 59.7306 112.767 59.9545C112.751 60.1784 112.727 60.3783 112.695 60.5543H103.003V58.851H111.856L110.872 59.0429C110.872 57.8914 110.552 57.0037 109.912 56.38C109.289 55.7563 108.465 55.4444 107.441 55.4444C106.658 55.4444 105.978 55.6283 105.402 55.9962C104.843 56.348 104.403 56.8678 104.083 57.5555C103.779 58.2272 103.627 59.0429 103.627 60.0025C103.627 60.9461 103.787 61.7618 104.107 62.4495C104.427 63.1372 104.875 63.665 105.45 64.0328C106.042 64.3847 106.746 64.5606 107.561 64.5606C108.441 64.5606 109.153 64.3927 109.697 64.0568C110.256 63.7209 110.704 63.2651 111.04 62.6894L112.551 63.577C112.247 64.1208 111.856 64.5926 111.376 64.9924C110.912 65.3923 110.36 65.7041 109.721 65.928C109.097 66.1359 108.393 66.2399 107.609 66.2399Z" fill="white"/>
<path d="M187.392 26.472V12.248H186.888L185.04 18.968H181.512V18.632L183.864 10.4H191.088V26.472H195.96V30H181.848V26.472H187.392ZM203.361 20.2C203.361 19.5653 203.594 19.0147 204.061 18.548C204.527 18.0813 205.078 17.848 205.713 17.848C206.347 17.848 206.898 18.0813 207.365 18.548C207.831 19.0147 208.065 19.5653 208.065 20.2C208.065 20.8347 207.831 21.3853 207.365 21.852C206.898 22.3187 206.347 22.552 205.713 22.552C205.078 22.552 204.527 22.3187 204.061 21.852C203.594 21.3853 203.361 20.8347 203.361 20.2ZM198.489 18.016C198.489 15.4773 199.123 13.508 200.393 12.108C201.681 10.708 203.454 10.008 205.713 10.008C207.971 10.008 209.735 10.708 211.005 12.108C212.293 13.508 212.937 15.4773 212.937 18.016V22.384C212.937 24.9973 212.293 26.9853 211.005 28.348C209.735 29.7107 207.971 30.392 205.713 30.392C203.454 30.392 201.681 29.7107 200.393 28.348C199.123 26.9853 198.489 24.9973 198.489 22.384V18.016ZM205.713 27.032C206.385 27.032 206.945 26.9293 207.393 26.724C207.841 26.5 208.205 26.192 208.485 25.8C208.765 25.408 208.961 24.9413 209.073 24.4C209.185 23.8587 209.241 23.2613 209.241 22.608V17.792C209.241 17.176 209.175 16.5973 209.045 16.056C208.914 15.5147 208.709 15.048 208.429 14.656C208.149 14.264 207.785 13.956 207.337 13.732C206.889 13.4893 206.347 13.368 205.713 13.368C205.078 13.368 204.537 13.4893 204.089 13.732C203.641 13.956 203.277 14.264 202.997 14.656C202.717 15.048 202.511 15.5147 202.381 16.056C202.25 16.5973 202.185 17.176 202.185 17.792V22.608C202.185 23.2613 202.241 23.8587 202.353 24.4C202.465 24.9413 202.661 25.408 202.941 25.8C203.221 26.192 203.585 26.5 204.033 26.724C204.481 26.9293 205.041 27.032 205.713 27.032ZM220.505 20.2C220.505 19.5653 220.738 19.0147 221.205 18.548C221.672 18.0813 222.222 17.848 222.857 17.848C223.492 17.848 224.042 18.0813 224.509 18.548C224.976 19.0147 225.209 19.5653 225.209 20.2C225.209 20.8347 224.976 21.3853 224.509 21.852C224.042 22.3187 223.492 22.552 222.857 22.552C222.222 22.552 221.672 22.3187 221.205 21.852C220.738 21.3853 220.505 20.8347 220.505 20.2ZM215.633 18.016C215.633 15.4773 216.268 13.508 217.537 12.108C218.825 10.708 220.598 10.008 222.857 10.008C225.116 10.008 226.88 10.708 228.149 12.108C229.437 13.508 230.081 15.4773 230.081 18.016V22.384C230.081 24.9973 229.437 26.9853 228.149 28.348C226.88 29.7107 225.116 30.392 222.857 30.392C220.598 30.392 218.825 29.7107 217.537 28.348C216.268 26.9853 215.633 24.9973 215.633 22.384V18.016ZM222.857 27.032C223.529 27.032 224.089 26.9293 224.537 26.724C224.985 26.5 225.349 26.192 225.629 25.8C225.909 25.408 226.105 24.9413 226.217 24.4C226.329 23.8587 226.385 23.2613 226.385 22.608V17.792C226.385 17.176 226.32 16.5973 226.189 16.056C226.058 15.5147 225.853 15.048 225.573 14.656C225.293 14.264 224.929 13.956 224.481 13.732C224.033 13.4893 223.492 13.368 222.857 13.368C222.222 13.368 221.681 13.4893 221.233 13.732C220.785 13.956 220.421 14.264 220.141 14.656C219.861 15.048 219.656 15.5147 219.525 16.056C219.394 16.5973 219.329 17.176 219.329 17.792V22.608C219.329 23.2613 219.385 23.8587 219.497 24.4C219.609 24.9413 219.805 25.408 220.085 25.8C220.365 26.192 220.729 26.5 221.177 26.724C221.625 26.9293 222.185 27.032 222.857 27.032ZM238.266 21.208H238.938L242.634 16.112H246.498V16.28L242.018 22.636V23.14L246.946 29.832V30H242.914L238.938 24.568H238.266V30H234.738V10.4H238.266V21.208ZM251.294 18.604H255.55V14.348H258.742V18.604H262.998V21.796H258.742V26.052H255.55V21.796H251.294V18.604Z" fill="white"/>
<path d="M195.21 66H193.171L191.491 61.6098H184.318L182.639 66H180.624L186.789 50.1666H189.068L195.21 66ZM185.014 59.8106H190.796L187.893 52.0138L185.014 59.8106ZM202.2 66.2399C201.432 66.2399 200.704 66.096 200.016 65.8081C199.345 65.5202 198.793 65.0564 198.361 64.4167C197.945 63.7609 197.737 62.9133 197.737 61.8737V54.005H199.657V61.3699C199.657 62.5854 199.921 63.4251 200.448 63.8889C200.976 64.3367 201.72 64.5606 202.679 64.5606C203.127 64.5606 203.567 64.4886 203.999 64.3447C204.431 64.1848 204.814 63.9449 205.15 63.625C205.502 63.2891 205.774 62.8653 205.966 62.3535C206.174 61.8417 206.278 61.234 206.278 60.5303V54.005H208.197V66H206.518L206.398 64.1768C205.982 64.8965 205.414 65.4242 204.695 65.7601C203.991 66.08 203.159 66.2399 202.2 66.2399ZM217.63 53.7651C218.461 53.7651 219.189 53.893 219.813 54.1489C220.452 54.4048 221.004 54.7727 221.468 55.2525C221.932 55.7323 222.308 56.3 222.596 56.9558L220.772 57.8194C220.516 57.0517 220.125 56.468 219.597 56.0681C219.085 55.6523 218.413 55.4444 217.582 55.4444C216.782 55.4444 216.094 55.6283 215.519 55.9962C214.943 56.348 214.503 56.8678 214.199 57.5555C213.895 58.2272 213.743 59.0429 213.743 60.0025C213.743 60.9461 213.895 61.7618 214.199 62.4495C214.503 63.1372 214.943 63.665 215.519 64.0328C216.094 64.3847 216.782 64.5606 217.582 64.5606C218.205 64.5606 218.741 64.4646 219.189 64.2727C219.653 64.0808 220.029 63.8009 220.317 63.4331C220.62 63.0652 220.828 62.6174 220.94 62.0896L222.716 62.7134C222.444 63.4491 222.068 64.0808 221.588 64.6086C221.124 65.1364 220.556 65.5442 219.885 65.8321C219.229 66.104 218.477 66.2399 217.63 66.2399C216.51 66.2399 215.511 65.992 214.631 65.4962C213.751 65.0004 213.064 64.2887 212.568 63.3611C212.072 62.4175 211.824 61.298 211.824 60.0025C211.824 58.707 212.072 57.5955 212.568 56.6679C213.064 55.7243 213.751 55.0046 214.631 54.5088C215.511 54.013 216.51 53.7651 217.63 53.7651ZM228.919 50.5984V62.6894C228.919 63.2811 229.087 63.7209 229.422 64.0088C229.758 64.2967 230.19 64.4406 230.718 64.4406C231.182 64.4406 231.582 64.3607 231.917 64.2007C232.253 64.0408 232.557 63.8249 232.829 63.553L233.501 65.1604C233.133 65.4962 232.693 65.7601 232.181 65.952C231.685 66.1439 231.11 66.2399 230.454 66.2399C229.846 66.2399 229.278 66.1359 228.751 65.928C228.223 65.7041 227.799 65.3603 227.479 64.8965C227.175 64.4167 227.015 63.7929 226.999 63.0252V51.1262L228.919 50.5984ZM233.285 54.005V55.6603H224.6V54.005H233.285ZM237.098 51.702C236.666 51.702 236.314 51.574 236.042 51.3181C235.786 51.0462 235.658 50.6944 235.658 50.2626C235.658 49.8307 235.786 49.4869 236.042 49.231C236.314 48.9591 236.666 48.8232 237.098 48.8232C237.53 48.8232 237.874 48.9591 238.129 49.231C238.401 49.4869 238.537 49.8307 238.537 50.2626C238.537 50.6944 238.401 51.0462 238.129 51.3181C237.874 51.574 237.53 51.702 237.098 51.702ZM238.057 54.005V66H236.138V54.005H238.057ZM247.477 53.7651C248.612 53.7651 249.612 54.013 250.475 54.5088C251.355 55.0046 252.043 55.7243 252.538 56.6679C253.034 57.5955 253.282 58.707 253.282 60.0025C253.282 61.298 253.034 62.4175 252.538 63.3611C252.043 64.2887 251.355 65.0004 250.475 65.4962C249.612 65.992 248.612 66.2399 247.477 66.2399C246.357 66.2399 245.357 65.992 244.478 65.4962C243.598 65.0004 242.91 64.2887 242.415 63.3611C241.919 62.4175 241.671 61.298 241.671 60.0025C241.671 58.707 241.919 57.5955 242.415 56.6679C242.91 55.7243 243.598 55.0046 244.478 54.5088C245.357 54.013 246.357 53.7651 247.477 53.7651ZM247.477 55.4204C246.661 55.4204 245.965 55.6043 245.389 55.9722C244.814 56.34 244.366 56.8678 244.046 57.5555C243.742 58.2272 243.59 59.0429 243.59 60.0025C243.59 60.9461 243.742 61.7618 244.046 62.4495C244.366 63.1372 244.814 63.665 245.389 64.0328C245.965 64.4007 246.661 64.5846 247.477 64.5846C248.292 64.5846 248.988 64.4007 249.564 64.0328C250.139 63.665 250.579 63.1372 250.883 62.4495C251.203 61.7618 251.363 60.9461 251.363 60.0025C251.363 59.0429 251.203 58.2272 250.883 57.5555C250.579 56.8678 250.139 56.34 249.564 55.9722C248.988 55.6043 248.292 55.4204 247.477 55.4204ZM256.895 66V54.005H258.575L258.742 56.6919L258.431 56.428C258.687 55.7883 259.03 55.2765 259.462 54.8926C259.894 54.4928 260.39 54.2049 260.95 54.029C261.525 53.8531 262.117 53.7651 262.725 53.7651C263.588 53.7651 264.372 53.933 265.076 54.2689C265.78 54.5888 266.339 55.0845 266.755 55.7563C267.187 56.428 267.403 57.2836 267.403 58.3232V66H265.484V58.9949C265.484 57.6675 265.196 56.7479 264.62 56.2361C264.06 55.7083 263.365 55.4444 262.533 55.4444C261.957 55.4444 261.381 55.5803 260.806 55.8522C260.23 56.1241 259.75 56.5639 259.366 57.1717C258.998 57.7794 258.814 58.5951 258.814 59.6187V66H256.895ZM276.067 66.2399C274.899 66.2399 273.82 65.992 272.828 65.4962C271.852 65.0004 271.101 64.2967 270.573 63.3851L272.204 62.2096C272.556 62.9453 273.068 63.521 273.74 63.9369C274.427 64.3527 275.251 64.5606 276.211 64.5606C277.058 64.5606 277.722 64.4007 278.202 64.0808C278.682 63.7449 278.921 63.3131 278.921 62.7853C278.921 62.4495 278.809 62.1456 278.586 61.8737C278.378 61.5858 277.97 61.3779 277.362 61.25L274.483 60.6502C273.316 60.4103 272.476 60.0105 271.964 59.4507C271.469 58.891 271.221 58.1953 271.221 57.3636C271.221 56.7079 271.405 56.1081 271.772 55.5643C272.156 55.0206 272.692 54.5888 273.38 54.2689C274.083 53.933 274.907 53.7651 275.851 53.7651C277.034 53.7651 278.034 53.997 278.849 54.4608C279.665 54.9246 280.273 55.5803 280.673 56.428L279.065 57.4835C278.794 56.7798 278.354 56.2681 277.746 55.9482C277.138 55.6123 276.506 55.4444 275.851 55.4444C275.275 55.4444 274.779 55.5244 274.363 55.6843C273.964 55.8442 273.652 56.0681 273.428 56.356C273.22 56.6279 273.116 56.9398 273.116 57.2916C273.116 57.6435 273.236 57.9713 273.476 58.2752C273.716 58.5631 274.163 58.771 274.819 58.899L277.818 59.5227C278.937 59.7466 279.721 60.1145 280.169 60.6262C280.617 61.138 280.841 61.7618 280.841 62.4975C280.841 63.2491 280.641 63.9129 280.241 64.4886C279.841 65.0484 279.281 65.4802 278.562 65.7841C277.842 66.088 277.01 66.2399 276.067 66.2399Z" fill="white"/>
<path d="M375.596 26.472V30H361.82V26.136C361.82 25.1093 361.969 24.232 362.268 23.504C362.585 22.776 363.024 22.16 363.584 21.656C364.163 21.152 364.853 20.7413 365.656 20.424C366.459 20.088 367.364 19.808 368.372 19.584C369.119 19.416 369.725 19.2293 370.192 19.024C370.677 18.8 371.06 18.5573 371.34 18.296C371.62 18.016 371.807 17.7173 371.9 17.4C372.012 17.064 372.068 16.6907 372.068 16.28C372.068 15.496 371.779 14.8427 371.2 14.32C370.64 13.7973 369.856 13.536 368.848 13.536C367.784 13.536 366.935 13.8627 366.3 14.516C365.665 15.1507 365.348 16.0373 365.348 17.176V18.408H361.652V16.84C361.652 15.9253 361.811 15.0573 362.128 14.236C362.464 13.396 362.931 12.668 363.528 12.052C364.144 11.4173 364.891 10.9227 365.768 10.568C366.645 10.1947 367.635 10.008 368.736 10.008C369.912 10.008 370.939 10.1853 371.816 10.54C372.693 10.876 373.421 11.324 374 11.884C374.597 12.444 375.036 13.0973 375.316 13.844C375.615 14.572 375.764 15.328 375.764 16.112V16.448C375.764 18.0907 375.297 19.4533 374.364 20.536C373.449 21.6187 371.947 22.4027 369.856 22.888C368.979 23.0933 368.251 23.308 367.672 23.532C367.112 23.7373 366.673 23.9707 366.356 24.232C366.039 24.4933 365.815 24.7827 365.684 25.1C365.572 25.3987 365.516 25.744 365.516 26.136V26.472H375.596ZM383.641 10.4H390.641V22.776H393.497V26.304H390.641V30H386.945V26.304H378.209V21.208L383.641 10.4ZM381.401 22.272V22.776H386.945V12.248H386.441L381.401 22.272ZM400.505 20.2C400.505 19.5653 400.738 19.0147 401.205 18.548C401.672 18.0813 402.222 17.848 402.857 17.848C403.492 17.848 404.042 18.0813 404.509 18.548C404.976 19.0147 405.209 19.5653 405.209 20.2C405.209 20.8347 404.976 21.3853 404.509 21.852C404.042 22.3187 403.492 22.552 402.857 22.552C402.222 22.552 401.672 22.3187 401.205 21.852C400.738 21.3853 400.505 20.8347 400.505 20.2ZM395.633 18.016C395.633 15.4773 396.268 13.508 397.537 12.108C398.825 10.708 400.598 10.008 402.857 10.008C405.116 10.008 406.88 10.708 408.149 12.108C409.437 13.508 410.081 15.4773 410.081 18.016V22.384C410.081 24.9973 409.437 26.9853 408.149 28.348C406.88 29.7107 405.116 30.392 402.857 30.392C400.598 30.392 398.825 29.7107 397.537 28.348C396.268 26.9853 395.633 24.9973 395.633 22.384V18.016ZM402.857 27.032C403.529 27.032 404.089 26.9293 404.537 26.724C404.985 26.5 405.349 26.192 405.629 25.8C405.909 25.408 406.105 24.9413 406.217 24.4C406.329 23.8587 406.385 23.2613 406.385 22.608V17.792C406.385 17.176 406.32 16.5973 406.189 16.056C406.058 15.5147 405.853 15.048 405.573 14.656C405.293 14.264 404.929 13.956 404.481 13.732C404.033 13.4893 403.492 13.368 402.857 13.368C402.222 13.368 401.681 13.4893 401.233 13.732C400.785 13.956 400.421 14.264 400.141 14.656C399.861 15.048 399.656 15.5147 399.525 16.056C399.394 16.5973 399.329 17.176 399.329 17.792V22.608C399.329 23.2613 399.385 23.8587 399.497 24.4C399.609 24.9413 399.805 25.408 400.085 25.8C400.365 26.192 400.729 26.5 401.177 26.724C401.625 26.9293 402.185 27.032 402.857 27.032ZM418.266 21.208H418.938L422.634 16.112H426.498V16.28L422.018 22.636V23.14L426.946 29.832V30H422.914L418.938 24.568H418.266V30H414.738V10.4H418.266V21.208ZM431.294 18.604H435.55V14.348H438.742V18.604H442.998V21.796H438.742V26.052H435.55V21.796H431.294V18.604Z" fill="white"/>
<path d="M375.21 66H373.171L371.491 61.6098H364.318L362.639 66H360.624L366.789 50.1666H369.068L375.21 66ZM365.014 59.8106H370.796L367.893 52.0138L365.014 59.8106ZM378.068 66V54.005H379.628L379.891 55.9722C380.227 55.2365 380.715 54.6847 381.355 54.3169C382.011 53.949 382.802 53.7651 383.73 53.7651C383.938 53.7651 384.162 53.7811 384.402 53.8131C384.657 53.8451 384.873 53.909 385.049 54.005L384.713 55.7563C384.538 55.6923 384.346 55.6443 384.138 55.6123C383.93 55.5803 383.634 55.5643 383.25 55.5643C382.754 55.5643 382.25 55.7083 381.739 55.9962C381.243 56.284 380.827 56.7239 380.491 57.3156C380.155 57.8914 379.987 58.6271 379.987 59.5227V66H378.068ZM389.966 50.5984V62.6894C389.966 63.2811 390.134 63.7209 390.469 64.0088C390.805 64.2967 391.237 64.4406 391.765 64.4406C392.229 64.4406 392.628 64.3607 392.964 64.2007C393.3 64.0408 393.604 63.8249 393.876 63.553L394.548 65.1604C394.18 65.4962 393.74 65.7601 393.228 65.952C392.732 66.1439 392.157 66.2399 391.501 66.2399C390.893 66.2399 390.325 66.1359 389.798 65.928C389.27 65.7041 388.846 65.3603 388.526 64.8965C388.222 64.4167 388.062 63.7929 388.046 63.0252V51.1262L389.966 50.5984ZM394.332 54.005V55.6603H385.647V54.005H394.332ZM398.145 51.702C397.713 51.702 397.361 51.574 397.089 51.3181C396.833 51.0462 396.705 50.6944 396.705 50.2626C396.705 49.8307 396.833 49.4869 397.089 49.231C397.361 48.9591 397.713 48.8232 398.145 48.8232C398.577 48.8232 398.921 48.9591 399.176 49.231C399.448 49.4869 399.584 49.8307 399.584 50.2626C399.584 50.6944 399.448 51.0462 399.176 51.3181C398.921 51.574 398.577 51.702 398.145 51.702ZM399.104 54.005V66H397.185V54.005H399.104ZM407.876 66.2399C406.708 66.2399 405.629 65.992 404.637 65.4962C403.662 65.0004 402.91 64.2967 402.382 63.3851L404.013 62.2096C404.365 62.9453 404.877 63.521 405.549 63.9369C406.236 64.3527 407.06 64.5606 408.02 64.5606C408.867 64.5606 409.531 64.4007 410.011 64.0808C410.491 63.7449 410.731 63.3131 410.731 62.7853C410.731 62.4495 410.619 62.1456 410.395 61.8737C410.187 61.5858 409.779 61.3779 409.171 61.25L406.292 60.6502C405.125 60.4103 404.285 60.0105 403.774 59.4507C403.278 58.891 403.03 58.1953 403.03 57.3636C403.03 56.7079 403.214 56.1081 403.582 55.5643C403.965 55.0206 404.501 54.5888 405.189 54.2689C405.893 53.933 406.716 53.7651 407.66 53.7651C408.843 53.7651 409.843 53.997 410.659 54.4608C411.474 54.9246 412.082 55.5803 412.482 56.428L410.875 57.4835C410.603 56.7798 410.163 56.2681 409.555 55.9482C408.947 55.6123 408.316 55.4444 407.66 55.4444C407.084 55.4444 406.588 55.5244 406.173 55.6843C405.773 55.8442 405.461 56.0681 405.237 56.356C405.029 56.6279 404.925 56.9398 404.925 57.2916C404.925 57.6435 405.045 57.9713 405.285 58.2752C405.525 58.5631 405.973 58.771 406.628 58.899L409.627 59.5227C410.747 59.7466 411.53 60.1145 411.978 60.6262C412.426 61.138 412.65 61.7618 412.65 62.4975C412.65 63.2491 412.45 63.9129 412.05 64.4886C411.65 65.0484 411.09 65.4802 410.371 65.7841C409.651 66.088 408.819 66.2399 407.876 66.2399ZM419.039 50.5984V62.6894C419.039 63.2811 419.207 63.7209 419.543 64.0088C419.879 64.2967 420.311 64.4406 420.839 64.4406C421.302 64.4406 421.702 64.3607 422.038 64.2007C422.374 64.0408 422.678 63.8249 422.95 63.553L423.621 65.1604C423.254 65.4962 422.814 65.7601 422.302 65.952C421.806 66.1439 421.23 66.2399 420.575 66.2399C419.967 66.2399 419.399 66.1359 418.871 65.928C418.344 65.7041 417.92 65.3603 417.6 64.8965C417.296 64.4167 417.136 63.7929 417.12 63.0252V51.1262L419.039 50.5984ZM423.406 54.005V55.6603H414.721V54.005H423.406ZM430.577 66.2399C429.41 66.2399 428.33 65.992 427.339 65.4962C426.363 65.0004 425.611 64.2967 425.084 63.3851L426.715 62.2096C427.067 62.9453 427.579 63.521 428.25 63.9369C428.938 64.3527 429.762 64.5606 430.721 64.5606C431.569 64.5606 432.233 64.4007 432.712 64.0808C433.192 63.7449 433.432 63.3131 433.432 62.7853C433.432 62.4495 433.32 62.1456 433.096 61.8737C432.888 61.5858 432.48 61.3779 431.873 61.25L428.994 60.6502C427.826 60.4103 426.987 60.0105 426.475 59.4507C425.979 58.891 425.731 58.1953 425.731 57.3636C425.731 56.7079 425.915 56.1081 426.283 55.5643C426.667 55.0206 427.203 54.5888 427.89 54.2689C428.594 53.933 429.418 53.7651 430.361 53.7651C431.545 53.7651 432.544 53.997 433.36 54.4608C434.176 54.9246 434.784 55.5803 435.183 56.428L433.576 57.4835C433.304 56.7798 432.864 56.2681 432.257 55.9482C431.649 55.6123 431.017 55.4444 430.361 55.4444C429.786 55.4444 429.29 55.5244 428.874 55.6843C428.474 55.8442 428.162 56.0681 427.938 56.356C427.73 56.6279 427.626 56.9398 427.626 57.2916C427.626 57.6435 427.746 57.9713 427.986 58.2752C428.226 58.5631 428.674 58.771 429.33 58.899L432.329 59.5227C433.448 59.7466 434.232 60.1145 434.68 60.6262C435.127 61.138 435.351 61.7618 435.351 62.4975C435.351 63.2491 435.151 63.9129 434.752 64.4886C434.352 65.0484 433.792 65.4802 433.072 65.7841C432.353 66.088 431.521 66.2399 430.577 66.2399Z" fill="white"/>
</svg>
